G04 ================== begin FILE IDENTIFICATION RECORD ==================*
G04 Layout Name:  CHOPPING WAVE OSC.brd*
G04 Film Name:    Silkt*
G04 File Format:  Gerber RS274X*
G04 File Origin:  Cadence Allegro 17.2-P019*
G04 Origin Date:  Wed Jul 31 12:27:31 2019*
G04 *
G04 Layer:  REF DES/SILKSCREEN_TOP*
G04 Layer:  PACKAGE GEOMETRY/SILKSCREEN_TOP*
G04 Layer:  BOARD GEOMETRY/SILKSCREEN_TOP*
G04 *
G04 Offset:    (0.000 0.000)*
G04 Mirror:    No*
G04 Mode:      Positive*
G04 Rotation:  0*
G04 FullContactRelief:  No*
G04 UndefLineWidth:     0.200*
G04 ================== end FILE IDENTIFICATION RECORD ====================*
%FSLAX25Y25*MOMM*%
%IR0*IPPOS*OFA0.00000B0.00000*MIA0B0*SFA1.00000B1.00000*%
%ADD10C,.5*%
%ADD11C,.2*%
G75*
%LPD*%
G75*
G54D10*
G01X4056200Y254000D02*
X3956200D01*
Y654000D01*
X4056200D01*
G01X4016200Y460700D02*
X3956200D01*
G01X4121400Y654000D02*
Y254000D01*
X4221400D01*
G01X4386600D02*
X4286600D01*
Y654000D01*
X4386600D01*
G01X4346600Y460700D02*
X4286600D01*
G01X4556800Y620700D02*
X4541800Y640700D01*
X4524300Y654000D01*
X4504300D01*
X4481800Y634000D01*
X4464300Y600700D01*
X4451800Y560700D01*
X4441800Y494000D01*
X4439300Y434000D01*
X4444300Y374000D01*
X4451800Y334000D01*
X4466800Y294000D01*
X4484300Y267300D01*
X4501800Y254000D01*
X4519300D01*
X4536800Y267300D01*
X4551800Y287300D01*
X4564300Y314000D01*
G01X4667000Y654000D02*
Y254000D01*
G01X4609500Y654000D02*
X4724500D01*
G01X4782200Y254000D02*
Y654000D01*
X4844700D01*
X4864700Y634000D01*
X4877200Y607300D01*
X4882200Y554000D01*
X4877200Y500700D01*
X4862200Y467300D01*
X4844700Y447300D01*
X4782200D01*
G01X4844700D02*
X4882200Y254000D01*
G01X4997400D02*
X4977400Y260700D01*
X4959900Y287300D01*
X4944900Y327300D01*
X4934900Y374000D01*
X4929900Y427300D01*
Y480700D01*
X4934900Y534000D01*
X4944900Y580700D01*
X4959900Y620700D01*
X4977400Y647300D01*
X4997400Y654000D01*
X5017400Y647300D01*
X5034900Y620700D01*
X5049900Y580700D01*
X5059900Y534000D01*
X5064900Y480700D01*
Y427300D01*
X5059900Y374000D01*
X5049900Y327300D01*
X5034900Y287300D01*
X5017400Y260700D01*
X4997400Y254000D01*
G01X5105100D02*
Y654000D01*
X5220100Y254000D01*
Y654000D01*
G01X5297800D02*
X5357800D01*
G01X5327800D02*
Y254000D01*
G01X5297800D02*
X5357800D01*
G01X5548000Y620700D02*
X5533000Y640700D01*
X5515500Y654000D01*
X5495500D01*
X5473000Y634000D01*
X5455500Y600700D01*
X5443000Y560700D01*
X5433000Y494000D01*
X5430500Y434000D01*
X5435500Y374000D01*
X5443000Y334000D01*
X5458000Y294000D01*
X5475500Y267300D01*
X5493000Y254000D01*
X5510500D01*
X5528000Y267300D01*
X5543000Y287300D01*
X5555500Y314000D01*
G01X5878400Y620700D02*
X5863400Y640700D01*
X5845900Y654000D01*
X5825900D01*
X5803400Y634000D01*
X5785900Y600700D01*
X5773400Y560700D01*
X5763400Y494000D01*
X5760900Y434000D01*
X5765900Y374000D01*
X5773400Y334000D01*
X5788400Y294000D01*
X5805900Y267300D01*
X5823400Y254000D01*
X5840900D01*
X5858400Y267300D01*
X5873400Y287300D01*
X5885900Y314000D01*
G01X5926100Y254000D02*
X5988600Y654000D01*
X6051100Y254000D01*
G01X6028600Y394000D02*
X5948600D01*
G01X6098800Y254000D02*
Y654000D01*
X6148800D01*
X6168800Y634000D01*
X6183800Y607300D01*
X6196300Y567300D01*
X6206300Y520700D01*
X6208800Y454000D01*
X6206300Y387300D01*
X6196300Y340700D01*
X6183800Y300700D01*
X6168800Y274000D01*
X6148800Y254000D01*
X6098800D01*
G01X3559400Y6716700D02*
X3544400Y6736700D01*
X3526900Y6750000D01*
X3506900D01*
X3484400Y6730000D01*
X3466900Y6696700D01*
X3454400Y6656700D01*
X3444400Y6590000D01*
X3441900Y6530000D01*
X3446900Y6470000D01*
X3454400Y6430000D01*
X3469400Y6390000D01*
X3486900Y6363300D01*
X3504400Y6350000D01*
X3521900D01*
X3539400Y6363300D01*
X3554400Y6383300D01*
X3566900Y6410000D01*
G01X3617100Y6350000D02*
Y6750000D01*
G01X3722100D02*
Y6350000D01*
G01Y6550000D02*
X3617100D01*
G01X3834800Y6350000D02*
X3814800Y6356700D01*
X3797300Y6383300D01*
X3782300Y6423300D01*
X3772300Y6470000D01*
X3767300Y6523300D01*
Y6576700D01*
X3772300Y6630000D01*
X3782300Y6676700D01*
X3797300Y6716700D01*
X3814800Y6743300D01*
X3834800Y6750000D01*
X3854800Y6743300D01*
X3872300Y6716700D01*
X3887300Y6676700D01*
X3897300Y6630000D01*
X3902300Y6576700D01*
Y6523300D01*
X3897300Y6470000D01*
X3887300Y6423300D01*
X3872300Y6383300D01*
X3854800Y6356700D01*
X3834800Y6350000D01*
G01X3950000D02*
Y6750000D01*
X4010000D01*
X4030000Y6730000D01*
X4045000Y6683300D01*
X4050000Y6630000D01*
X4045000Y6576700D01*
X4032500Y6536700D01*
X4010000Y6516700D01*
X3950000D01*
G01X4115200Y6350000D02*
Y6750000D01*
X4175200D01*
X4195200Y6730000D01*
X4210200Y6683300D01*
X4215200Y6630000D01*
X4210200Y6576700D01*
X4197700Y6536700D01*
X4175200Y6516700D01*
X4115200D01*
G01X4300400Y6750000D02*
X4360400D01*
G01X4330400D02*
Y6350000D01*
G01X4300400D02*
X4360400D01*
G01X4438100D02*
Y6750000D01*
X4553100Y6350000D01*
Y6750000D01*
G01X4675800Y6550000D02*
X4725800D01*
Y6430000D01*
X4710800Y6390000D01*
X4693300Y6363300D01*
X4668300Y6350000D01*
X4643300Y6363300D01*
X4625800Y6390000D01*
X4610800Y6430000D01*
X4600800Y6476700D01*
X4595800Y6530000D01*
Y6576700D01*
X4600800Y6616700D01*
X4610800Y6663300D01*
X4625800Y6703300D01*
X4640800Y6730000D01*
X4660800Y6750000D01*
X4678300D01*
X4698300Y6736700D01*
X4713300Y6710000D01*
G01X4916200Y6750000D02*
X4951200Y6350000D01*
X4991200Y6750000D01*
X5031200Y6350000D01*
X5066200Y6750000D01*
G01X5093900Y6350000D02*
X5156400Y6750000D01*
X5218900Y6350000D01*
G01X5196400Y6490000D02*
X5116400D01*
G01X5259100Y6750000D02*
X5321600Y6350000D01*
X5384100Y6750000D01*
G01X5536800Y6350000D02*
X5436800D01*
Y6750000D01*
X5536800D01*
G01X5496800Y6556700D02*
X5436800D01*
G01X5817200Y6350000D02*
X5797200Y6356700D01*
X5779700Y6383300D01*
X5764700Y6423300D01*
X5754700Y6470000D01*
X5749700Y6523300D01*
Y6576700D01*
X5754700Y6630000D01*
X5764700Y6676700D01*
X5779700Y6716700D01*
X5797200Y6743300D01*
X5817200Y6750000D01*
X5837200Y6743300D01*
X5854700Y6716700D01*
X5869700Y6676700D01*
X5879700Y6630000D01*
X5884700Y6576700D01*
Y6523300D01*
X5879700Y6470000D01*
X5869700Y6423300D01*
X5854700Y6383300D01*
X5837200Y6356700D01*
X5817200Y6350000D01*
G01X5929900Y6403300D02*
X5949900Y6370000D01*
X5972400Y6350000D01*
X5992400D01*
X6012400Y6370000D01*
X6027400Y6403300D01*
X6034900Y6450000D01*
X6029900Y6496700D01*
X6017400Y6536700D01*
X5994900Y6563300D01*
X5964900Y6576700D01*
X5947400Y6603300D01*
X5939900Y6650000D01*
X5944900Y6696700D01*
X5957400Y6730000D01*
X5974900Y6750000D01*
X5992400D01*
X6009900Y6736700D01*
X6024900Y6703300D01*
G01X6202600Y6716700D02*
X6187600Y6736700D01*
X6170100Y6750000D01*
X6150100D01*
X6127600Y6730000D01*
X6110100Y6696700D01*
X6097600Y6656700D01*
X6087600Y6590000D01*
X6085100Y6530000D01*
X6090100Y6470000D01*
X6097600Y6430000D01*
X6112600Y6390000D01*
X6130100Y6363300D01*
X6147600Y6350000D01*
X6165100D01*
X6182600Y6363300D01*
X6197600Y6383300D01*
X6210100Y6410000D01*
G54D11*
G01X373000Y4627000D02*
X627000D01*
Y3865000D01*
X373000D01*
Y4627000D01*
G01X385600Y4651200D02*
X390500Y4643400D01*
X396300Y4638100D01*
X403200Y4635500D01*
X410900Y4638100D01*
X416800Y4643400D01*
X422600Y4651200D01*
X424600Y4661700D01*
Y4714200D01*
G01X483800Y4635500D02*
Y4714200D01*
X472100Y4698500D01*
G01Y4635500D02*
X495500D01*
G01X1401600Y952500D02*
Y1031200D01*
X1426000D01*
X1433800Y1027300D01*
X1438600Y1022000D01*
X1440600Y1011500D01*
X1438600Y1001000D01*
X1432800Y994500D01*
X1426000Y990500D01*
X1401600D01*
G01X1426000D02*
X1440600Y952500D01*
G01X1481300Y985300D02*
X1488100Y994500D01*
X1494000Y999700D01*
X1501700Y1002300D01*
X1508600Y999700D01*
X1513400Y994500D01*
X1517300Y986600D01*
X1518300Y977400D01*
X1517300Y969600D01*
X1513400Y961700D01*
X1507600Y955100D01*
X1500800Y952500D01*
X1493000Y955100D01*
X1486200Y963000D01*
X1482300Y974800D01*
X1481300Y987900D01*
X1483300Y1005000D01*
X1486200Y1014100D01*
X1491000Y1023300D01*
X1497900Y1029900D01*
X1504700Y1031200D01*
X1511500Y1028600D01*
X1516300Y1022000D01*
G01X2133600Y635000D02*
X1422400D01*
Y889000D01*
X2133600D01*
Y635000D01*
G01X1338100Y2159000D02*
Y2237700D01*
X1362500D01*
X1370300Y2233800D01*
X1375100Y2228500D01*
X1377100Y2218000D01*
X1375100Y2207500D01*
X1369300Y2201000D01*
X1362500Y2197000D01*
X1338100D01*
G01X1362500D02*
X1377100Y2159000D01*
G01X1414900Y2170800D02*
X1420700Y2164200D01*
X1427500Y2160300D01*
X1436300Y2159000D01*
X1445100Y2161600D01*
X1451900Y2166900D01*
X1456700Y2176100D01*
X1457700Y2186500D01*
X1455800Y2197000D01*
X1450900Y2203600D01*
X1444100Y2208800D01*
X1437300Y2210200D01*
X1430500Y2208800D01*
X1421700Y2203600D01*
X1424600Y2237700D01*
X1450900D01*
G01X2133600Y1905000D02*
X1422400D01*
Y2159000D01*
X2133600D01*
Y1905000D01*
G01Y2413000D02*
X1422400D01*
Y2667000D01*
X2133600D01*
Y2413000D01*
G01X1401600Y2730500D02*
Y2809200D01*
X1426000D01*
X1433800Y2805300D01*
X1438600Y2800000D01*
X1440600Y2789500D01*
X1438600Y2779000D01*
X1432800Y2772500D01*
X1426000Y2768500D01*
X1401600D01*
G01X1426000D02*
X1440600Y2730500D01*
G01X1497900D02*
X1499800Y2747600D01*
X1502700Y2762000D01*
X1506600Y2775100D01*
X1511500Y2789500D01*
X1519300Y2809200D01*
X1480300D01*
G01X1397000Y4165600D02*
Y4318000D01*
X1460500Y4381500D01*
Y4508500D01*
X1397000Y4572000D01*
Y4724400D01*
X2413000D01*
Y4165600D01*
X1397000D01*
G01X1541800Y4969700D02*
X1632800D01*
X1651900Y4976100D01*
X1664600Y4989000D01*
X1668800Y5005000D01*
X1664600Y5021100D01*
X1651900Y5034000D01*
X1632800Y5040400D01*
X1541800D01*
G01X1643400Y5099200D02*
X1658200Y5108800D01*
X1666700Y5121700D01*
X1668800Y5136200D01*
X1666700Y5149000D01*
X1656100Y5161900D01*
X1643400Y5169900D01*
X1630700Y5171500D01*
X1615900Y5168300D01*
X1605300Y5157100D01*
X1601100Y5145800D01*
Y5131300D01*
G01Y5145800D02*
X1594700Y5155500D01*
X1584100Y5163500D01*
X1571400Y5166700D01*
X1558700Y5163500D01*
X1548200Y5155500D01*
X1541800Y5141000D01*
X1543900Y5126500D01*
X1552400Y5112000D01*
G01X2129600Y1703900D02*
X2120000Y1710300D01*
X2108700Y1714500D01*
X2095900D01*
X2081400Y1708100D01*
X2070100Y1697600D01*
X2062100Y1684900D01*
X2055600Y1663700D01*
X2054000Y1644600D01*
X2057300Y1625600D01*
X2062100Y1612900D01*
X2071700Y1600200D01*
X2083000Y1591700D01*
X2094200Y1587500D01*
X2105500D01*
X2116800Y1591700D01*
X2126400Y1598100D01*
X2134500Y1606500D01*
G01X2193200Y1693300D02*
X2202800Y1706000D01*
X2214100Y1712400D01*
X2227000Y1714500D01*
X2243100Y1710300D01*
X2254300Y1699700D01*
X2257500Y1687000D01*
X2255900Y1674300D01*
X2249500Y1663700D01*
X2217300Y1642500D01*
X2202800Y1627700D01*
X2193200Y1606500D01*
X2190000Y1587500D01*
X2257500D01*
G01X2540000Y1397000D02*
G03I-254000J0D01*
G01X3048000Y2667000D02*
G03I-254000J0D01*
G01X2637600Y2973900D02*
X2628000Y2980300D01*
X2616700Y2984500D01*
X2603900D01*
X2589400Y2978100D01*
X2578100Y2967600D01*
X2570100Y2954900D01*
X2563600Y2933700D01*
X2562000Y2914600D01*
X2565300Y2895600D01*
X2570100Y2882900D01*
X2579700Y2870200D01*
X2591000Y2861700D01*
X2602200Y2857500D01*
X2613500D01*
X2624800Y2861700D01*
X2634400Y2868100D01*
X2642500Y2876500D01*
G01X2696400Y2882900D02*
X2706000Y2868100D01*
X2718900Y2859600D01*
X2733400Y2857500D01*
X2746200Y2859600D01*
X2759100Y2870200D01*
X2767100Y2882900D01*
X2768700Y2895600D01*
X2765500Y2910400D01*
X2754300Y2921000D01*
X2743000Y2925200D01*
X2728500D01*
G01X2743000D02*
X2752700Y2931600D01*
X2760700Y2942200D01*
X2763900Y2954900D01*
X2760700Y2967600D01*
X2752700Y2978100D01*
X2738200Y2984500D01*
X2723700Y2982400D01*
X2709200Y2973900D01*
G01X3048000Y3429000D02*
G03I-254000J0D01*
G01X2574100Y3799400D02*
X2564500Y3805800D01*
X2553200Y3810000D01*
X2540400D01*
X2525900Y3803600D01*
X2514600Y3793100D01*
X2506600Y3780400D01*
X2500100Y3759200D01*
X2498500Y3740100D01*
X2501800Y3721100D01*
X2506600Y3708400D01*
X2516200Y3695700D01*
X2527500Y3687200D01*
X2538700Y3683000D01*
X2550000D01*
X2561300Y3687200D01*
X2570900Y3693600D01*
X2579000Y3702000D01*
G01X2687600Y3683000D02*
Y3810000D01*
X2628000Y3719000D01*
X2708500D01*
G01X2124300Y6223000D02*
Y6301700D01*
X2148700D01*
X2156500Y6297800D01*
X2161300Y6292500D01*
X2163300Y6282000D01*
X2161300Y6271500D01*
X2155500Y6265000D01*
X2148700Y6261000D01*
X2124300D01*
G01X2148700D02*
X2163300Y6223000D01*
G01X2222500D02*
Y6301700D01*
X2210800Y6286000D01*
G01Y6223000D02*
X2234200D01*
G01X2301200Y6301700D02*
X2293400Y6299100D01*
X2287600Y6292500D01*
X2283700Y6284600D01*
X2280800Y6274200D01*
X2279800Y6262300D01*
X2280800Y6250500D01*
X2283700Y6240100D01*
X2287600Y6232200D01*
X2293400Y6225600D01*
X2301200Y6223000D01*
X2309000Y6225600D01*
X2314800Y6232200D01*
X2318700Y6240100D01*
X2321600Y6250500D01*
X2322600Y6262300D01*
X2321600Y6274200D01*
X2318700Y6284600D01*
X2314800Y6292500D01*
X2309000Y6299100D01*
X2301200Y6301700D01*
G01X2184400Y6223000D02*
X2895600D01*
Y5969000D01*
X2184400D01*
Y6223000D01*
G01X2828100Y1703900D02*
X2818500Y1710300D01*
X2807200Y1714500D01*
X2794400D01*
X2779900Y1708100D01*
X2768600Y1697600D01*
X2760600Y1684900D01*
X2754100Y1663700D01*
X2752500Y1644600D01*
X2755800Y1625600D01*
X2760600Y1612900D01*
X2770200Y1600200D01*
X2781500Y1591700D01*
X2792700Y1587500D01*
X2804000D01*
X2815300Y1591700D01*
X2824900Y1598100D01*
X2833000Y1606500D01*
G01X2922200Y1587500D02*
Y1714500D01*
X2902900Y1689100D01*
G01Y1587500D02*
X2941500D01*
G01X3302000Y1397000D02*
G03I-254000J0D01*
G01X3368400Y1999000D02*
X3408600Y1872000D01*
X3448900Y1999000D01*
G01X3506000Y1872000D02*
Y1999000D01*
X3546200D01*
X3559100Y1992600D01*
X3567100Y1984200D01*
X3570300Y1967200D01*
X3567100Y1950300D01*
X3557500Y1939700D01*
X3546200Y1933400D01*
X3506000D01*
G01X3546200D02*
X3570300Y1872000D01*
G01X3667600D02*
Y1999000D01*
X3648300Y1973600D01*
G01Y1872000D02*
X3686900D01*
G01X3370100Y4445000D02*
Y4523700D01*
X3394500D01*
X3402300Y4519800D01*
X3407100Y4514500D01*
X3409100Y4504000D01*
X3407100Y4493500D01*
X3401300Y4487000D01*
X3394500Y4483000D01*
X3370100D01*
G01X3394500D02*
X3409100Y4445000D01*
G01X3468300D02*
X3475100Y4446300D01*
X3482900Y4450200D01*
X3487800Y4456800D01*
X3489700Y4466000D01*
X3487800Y4475200D01*
X3481900Y4483000D01*
X3473200Y4487000D01*
X3463400D01*
X3457600Y4489600D01*
X3452700Y4496200D01*
X3450800Y4505300D01*
X3453700Y4514500D01*
X3460500Y4521100D01*
X3468300Y4523700D01*
X3476100Y4521100D01*
X3482900Y4514500D01*
X3485800Y4505300D01*
X3483900Y4496200D01*
X3479000Y4489600D01*
X3473200Y4487000D01*
X3463400D01*
X3454700Y4483000D01*
X3448800Y4475200D01*
X3446900Y4466000D01*
X3448800Y4456800D01*
X3453700Y4450200D01*
X3461500Y4446300D01*
X3468300Y4445000D01*
G01X4130400Y1999000D02*
X4170600Y1872000D01*
X4210900Y1999000D01*
G01X4268000Y1872000D02*
Y1999000D01*
X4308200D01*
X4321100Y1992600D01*
X4329100Y1984200D01*
X4332300Y1967200D01*
X4329100Y1950300D01*
X4319500Y1939700D01*
X4308200Y1933400D01*
X4268000D01*
G01X4308200D02*
X4332300Y1872000D01*
G01X4399100Y1977800D02*
X4408700Y1990500D01*
X4420000Y1996900D01*
X4432900Y1999000D01*
X4449000Y1994800D01*
X4460200Y1984200D01*
X4463400Y1971500D01*
X4461800Y1958800D01*
X4455400Y1948200D01*
X4423200Y1927000D01*
X4408700Y1912200D01*
X4399100Y1891000D01*
X4395900Y1872000D01*
X4463400D01*
G01X3429000Y1206500D02*
Y1841500D01*
X3937000D01*
Y1206500D01*
X3429000D01*
G01X3683000Y4419600D02*
Y3708400D01*
X3429000D01*
Y4419600D01*
X3683000D01*
G01X3711800Y6032500D02*
Y6111200D01*
X3736200D01*
X3744000Y6107300D01*
X3748800Y6102000D01*
X3750800Y6091500D01*
X3748800Y6081000D01*
X3743000Y6074500D01*
X3736200Y6070500D01*
X3711800D01*
G01X3736200D02*
X3750800Y6032500D01*
G01X3810000D02*
Y6111200D01*
X3798300Y6095500D01*
G01Y6032500D02*
X3821700D01*
G01X3870200Y6098100D02*
X3876000Y6106000D01*
X3882900Y6109900D01*
X3890600Y6111200D01*
X3900400Y6108600D01*
X3907200Y6102000D01*
X3909100Y6094100D01*
X3908200Y6086300D01*
X3904300Y6079700D01*
X3884800Y6066600D01*
X3876000Y6057400D01*
X3870200Y6044300D01*
X3868300Y6032500D01*
X3909100D01*
G01X3708400Y5969000D02*
X4419600D01*
Y5715000D01*
X3708400D01*
Y5969000D01*
G01X4191000Y1206500D02*
Y1841500D01*
X4699000D01*
Y1206500D01*
X4191000D01*
G01X5715000Y3454400D02*
Y3302000D01*
X5651500Y3238500D01*
Y3111500D01*
X5715000Y3048000D01*
Y2895600D01*
X4699000D01*
Y3454400D01*
X5715000D01*
G01X4725900Y3619500D02*
Y3528500D01*
X4732300Y3509400D01*
X4745200Y3496700D01*
X4761200Y3492500D01*
X4777300Y3496700D01*
X4790200Y3509400D01*
X4796600Y3528500D01*
Y3619500D01*
G01X4890700Y3492500D02*
Y3619500D01*
X4871400Y3594100D01*
G01Y3492500D02*
X4910000D01*
G01X5181600Y3937000D02*
X4470400D01*
Y4191000D01*
X5181600D01*
Y3937000D01*
G01X4449600Y4254500D02*
Y4333200D01*
X4474000D01*
X4481800Y4329300D01*
X4486600Y4324000D01*
X4488600Y4313500D01*
X4486600Y4303000D01*
X4480800Y4296500D01*
X4474000Y4292500D01*
X4449600D01*
G01X4474000D02*
X4488600Y4254500D01*
G01X4531300Y4263700D02*
X4538100Y4257100D01*
X4545900Y4254500D01*
X4553600Y4257100D01*
X4560500Y4265000D01*
X4565300Y4276800D01*
X4567300Y4288600D01*
Y4303000D01*
X4565300Y4314800D01*
X4560500Y4325300D01*
X4554600Y4330600D01*
X4547800Y4333200D01*
X4540000Y4330600D01*
X4534200Y4325300D01*
X4530300Y4317500D01*
X4528300Y4307000D01*
X4530300Y4297800D01*
X4535100Y4288600D01*
X4541000Y4283400D01*
X4547800Y4282000D01*
X4555600Y4284700D01*
X4561400Y4291200D01*
X4567300Y4303000D01*
G01X4449600Y4699000D02*
Y4777700D01*
X4474000D01*
X4481800Y4773800D01*
X4486600Y4768500D01*
X4488600Y4758000D01*
X4486600Y4747500D01*
X4480800Y4741000D01*
X4474000Y4737000D01*
X4449600D01*
G01X4474000D02*
X4488600Y4699000D01*
G01X4529300Y4764600D02*
X4535100Y4772500D01*
X4542000Y4776400D01*
X4549700Y4777700D01*
X4559500Y4775100D01*
X4566300Y4768500D01*
X4568200Y4760600D01*
X4567300Y4752800D01*
X4563400Y4746200D01*
X4543900Y4733100D01*
X4535100Y4723900D01*
X4529300Y4710800D01*
X4527400Y4699000D01*
X4568200D01*
G01X5181600Y4445000D02*
X4470400D01*
Y4699000D01*
X5181600D01*
Y4445000D01*
G01X4449600Y5270500D02*
Y5349200D01*
X4474000D01*
X4481800Y5345300D01*
X4486600Y5340000D01*
X4488600Y5329500D01*
X4486600Y5319000D01*
X4480800Y5312500D01*
X4474000Y5308500D01*
X4449600D01*
G01X4474000D02*
X4488600Y5270500D01*
G01X4526400Y5286200D02*
X4532200Y5277100D01*
X4540000Y5271800D01*
X4548800Y5270500D01*
X4556600Y5271800D01*
X4564300Y5278400D01*
X4569200Y5286200D01*
X4570200Y5294100D01*
X4568200Y5303300D01*
X4561400Y5309800D01*
X4554600Y5312500D01*
X4545900D01*
G01X4554600D02*
X4560500Y5316400D01*
X4565300Y5323000D01*
X4567300Y5330800D01*
X4565300Y5338700D01*
X4560500Y5345300D01*
X4551700Y5349200D01*
X4542900Y5347900D01*
X4534200Y5342600D01*
G01X4470400Y5207000D02*
X5181600D01*
Y4953000D01*
X4470400D01*
Y5207000D01*
G01X6667500Y2413000D02*
X6032500D01*
Y2921000D01*
X6667500D01*
Y2413000D01*
G01X5926200Y3048000D02*
X5966400Y2921000D01*
X6006700Y3048000D01*
G01X6063800Y2921000D02*
Y3048000D01*
X6104000D01*
X6116900Y3041600D01*
X6124900Y3033200D01*
X6128100Y3016200D01*
X6124900Y2999300D01*
X6115300Y2988700D01*
X6104000Y2982400D01*
X6063800D01*
G01X6104000D02*
X6128100Y2921000D01*
G01X6190100Y2946400D02*
X6199700Y2931600D01*
X6212600Y2923100D01*
X6227100Y2921000D01*
X6239900Y2923100D01*
X6252800Y2933700D01*
X6260800Y2946400D01*
X6262400Y2959100D01*
X6259200Y2973900D01*
X6248000Y2984500D01*
X6236700Y2988700D01*
X6222200D01*
G01X6236700D02*
X6246400Y2995100D01*
X6254400Y3005700D01*
X6257600Y3018400D01*
X6254400Y3031100D01*
X6246400Y3041600D01*
X6231900Y3048000D01*
X6217400Y3045900D01*
X6202900Y3037400D01*
G01X5934300Y4445000D02*
Y4523700D01*
X5958700D01*
X5966500Y4519800D01*
X5971300Y4514500D01*
X5973300Y4504000D01*
X5971300Y4493500D01*
X5965500Y4487000D01*
X5958700Y4483000D01*
X5934300D01*
G01X5958700D02*
X5973300Y4445000D01*
G01X6032500D02*
Y4523700D01*
X6020800Y4508000D01*
G01Y4445000D02*
X6044200D01*
G01X6089800Y4460700D02*
X6095600Y4451600D01*
X6103400Y4446300D01*
X6112200Y4445000D01*
X6120000Y4446300D01*
X6127700Y4452900D01*
X6132600Y4460700D01*
X6133600Y4468600D01*
X6131600Y4477800D01*
X6124800Y4484300D01*
X6118000Y4487000D01*
X6109300D01*
G01X6118000D02*
X6123900Y4490900D01*
X6128700Y4497500D01*
X6130700Y4505300D01*
X6128700Y4513200D01*
X6123900Y4519800D01*
X6115100Y4523700D01*
X6106300Y4522400D01*
X6097600Y4517100D01*
G01X5994400Y4445000D02*
X6705600D01*
Y4191000D01*
X5994400D01*
Y4445000D01*
G01X6477000Y914400D02*
Y1625600D01*
X6731000D01*
Y914400D01*
X6477000D01*
G01X6481600Y1651000D02*
Y1729700D01*
X6506000D01*
X6513800Y1725800D01*
X6518600Y1720500D01*
X6520600Y1710000D01*
X6518600Y1699500D01*
X6512800Y1693000D01*
X6506000Y1689000D01*
X6481600D01*
G01X6506000D02*
X6520600Y1651000D01*
G01X6591500D02*
Y1729700D01*
X6555500Y1673300D01*
X6604100D01*
G01X7518400Y1143000D02*
X8229600D01*
Y889000D01*
X7518400D01*
Y1143000D01*
G01X7497600Y1206500D02*
Y1285200D01*
X7522000D01*
X7529800Y1281300D01*
X7534600Y1276000D01*
X7536600Y1265500D01*
X7534600Y1255000D01*
X7528800Y1248500D01*
X7522000Y1244500D01*
X7497600D01*
G01X7522000D02*
X7536600Y1206500D01*
G01X7595800D02*
Y1285200D01*
X7584100Y1269500D01*
G01Y1206500D02*
X7607500D01*
G01X7519900Y2667000D02*
Y2576000D01*
X7526300Y2556900D01*
X7539200Y2544200D01*
X7555200Y2540000D01*
X7571300Y2544200D01*
X7584200Y2556900D01*
X7590600Y2576000D01*
Y2667000D01*
G01X7654200Y2645800D02*
X7663800Y2658500D01*
X7675100Y2664900D01*
X7688000Y2667000D01*
X7704100Y2662800D01*
X7715300Y2652200D01*
X7718500Y2639500D01*
X7716900Y2626800D01*
X7710500Y2616200D01*
X7678300Y2595000D01*
X7663800Y2580200D01*
X7654200Y2559000D01*
X7651000Y2540000D01*
X7718500D01*
G01X7493000Y1879600D02*
Y2032000D01*
X7556500Y2095500D01*
Y2222500D01*
X7493000Y2286000D01*
Y2438400D01*
X8509000D01*
Y1879600D01*
X7493000D01*
G01Y3911600D02*
Y4064000D01*
X7556500Y4127500D01*
Y4254500D01*
X7493000Y4318000D01*
Y4470400D01*
X8509000D01*
Y3911600D01*
X7493000D01*
G01X7456400Y4635500D02*
Y4544500D01*
X7462800Y4525400D01*
X7475700Y4512700D01*
X7491700Y4508500D01*
X7507800Y4512700D01*
X7520700Y4525400D01*
X7527100Y4544500D01*
Y4635500D01*
G01X7640600Y4508500D02*
Y4635500D01*
X7581000Y4544500D01*
X7661500D01*
G01X7458300Y6223000D02*
Y6301700D01*
X7482700D01*
X7490500Y6297800D01*
X7495300Y6292500D01*
X7497300Y6282000D01*
X7495300Y6271500D01*
X7489500Y6265000D01*
X7482700Y6261000D01*
X7458300D01*
G01X7482700D02*
X7497300Y6223000D01*
G01X7556500D02*
Y6301700D01*
X7544800Y6286000D01*
G01Y6223000D02*
X7568200D01*
G01X7635200D02*
Y6301700D01*
X7623500Y6286000D01*
G01Y6223000D02*
X7646900D01*
G01X7518400D02*
X8229600D01*
Y5969000D01*
X7518400D01*
Y6223000D01*
G01X9627000Y3373000D02*
X9373000D01*
Y3881000D01*
X9627000D01*
Y3373000D01*
G01X9275600Y3889200D02*
X9280500Y3881400D01*
X9286300Y3876100D01*
X9293200Y3873500D01*
X9300900Y3876100D01*
X9306800Y3881400D01*
X9312600Y3889200D01*
X9314600Y3899700D01*
Y3952200D01*
G01X9355300Y3939100D02*
X9361100Y3947000D01*
X9368000Y3950900D01*
X9375700Y3952200D01*
X9385500Y3949600D01*
X9392300Y3943000D01*
X9394200Y3935100D01*
X9393300Y3927300D01*
X9389400Y3920700D01*
X9369900Y3907600D01*
X9361100Y3898400D01*
X9355300Y3885300D01*
X9353400Y3873500D01*
X9394200D01*
M02*
