G04 ================== begin FILE IDENTIFICATION RECORD ==================*
G04 Layout Name:  CHOPPING WAVE OSC.brd*
G04 Film Name:    SolderB*
G04 File Format:  Gerber RS274X*
G04 File Origin:  Cadence Allegro 17.2-P019*
G04 Origin Date:  Wed Jul 31 12:27:30 2019*
G04 *
G04 Layer:  PIN/SOLDERMASK_BOTTOM*
G04 Layer:  PACKAGE GEOMETRY/SILKSCREEN_BOTTOM*
G04 Layer:  BOARD GEOMETRY/SOLDERMASK_BOTTOM*
G04 *
G04 Offset:    (0.000 0.000)*
G04 Mirror:    No*
G04 Mode:      Positive*
G04 Rotation:  0*
G04 FullContactRelief:  No*
G04 UndefLineWidth:     0.000*
G04 ================== end FILE IDENTIFICATION RECORD ====================*
%FSLAX25Y25*MOMM*%
%IR0*IPPOS*OFA0.00000B0.00000*MIA0B0*SFA1.00000B1.00000*%
%ADD12C,2.032*%
%ADD11C,1.905*%
%ADD10C,3.683*%
%ADD13R,1.905X1.905*%
%LPD*%
G75*
G54D10*
X500000Y500000D03*
Y6500000D03*
X9500000Y500000D03*
Y6500000D03*
G54D11*
X500000Y3992000D03*
Y4246000D03*
Y4500000D03*
X1778000Y4064000D03*
Y4826000D03*
X1524000D03*
X2286000Y1270000D03*
Y1524000D03*
Y4064000D03*
X2032000D03*
X2286000Y4826000D03*
X2032000D03*
X3048000Y1270000D03*
Y1524000D03*
X2794000Y2540000D03*
Y2794000D03*
Y3302000D03*
Y3556000D03*
X3810000Y1270000D03*
X3556000Y1524000D03*
X3810000Y1778000D03*
X4572000Y1270000D03*
X4318000Y1524000D03*
X4572000Y1778000D03*
X4826000Y2794000D03*
Y3556000D03*
X5080000Y2794000D03*
X5334000D03*
X5588000D03*
X5080000Y3556000D03*
X5334000D03*
X6350000Y2540000D03*
X6096000Y2794000D03*
X6604000D03*
X7874000Y1778000D03*
X7620000Y2540000D03*
X7874000D03*
Y3810000D03*
Y4572000D03*
X7620000D03*
X8382000Y1778000D03*
X8128000D03*
Y2540000D03*
X8382000D03*
Y3810000D03*
X8128000D03*
X8382000Y4572000D03*
X8128000D03*
X9500000Y3754000D03*
Y3500000D03*
G54D12*
X1270000Y762000D03*
Y2032000D03*
Y2540000D03*
X2286000Y762000D03*
Y2032000D03*
Y2540000D03*
X2032000Y6096000D03*
X3048000D03*
X3556000Y3556000D03*
Y4572000D03*
Y5842000D03*
X4318000Y4064000D03*
Y4572000D03*
Y5080000D03*
X4572000Y5842000D03*
X5334000Y4064000D03*
Y4572000D03*
Y5080000D03*
X5842000Y4318000D03*
X6604000Y762000D03*
Y1778000D03*
X6858000Y4318000D03*
X7366000Y1016000D03*
Y6096000D03*
X8382000Y1016000D03*
Y6096000D03*
G54D13*
X1524000Y4064000D03*
X5588000Y3556000D03*
X7620000Y1778000D03*
Y3810000D03*
M02*
